<?xml version="1.0" encoding="UTF-8"?>
<svg width="15px" height="20px" viewBox="0 0 15 20" version="1.1" xmlns="http://www.w3.org/2000/svg" xmlns:xlink="http://www.w3.org/1999/xlink">
    <title>icon-lock-close</title>
    <g id="Webpage" stroke="none" stroke-width="1" fill="none" fill-rule="evenodd">
        <g id="desktop/login" transform="translate(-658.000000, -287.000000)" fill="#FFFFFF">
            <path d="M672.73913,296.537084 L672.73913,305.207161 C672.73913,306.164831 671.962785,306.941176 671.005115,306.941176 L659.734015,306.941176 C658.776345,306.941176 658,306.164831 658,305.207161 L658,296.537084 C658,295.579414 658.776345,294.803069 659.734015,294.803069 L659.734015,288.734015 C659.734015,287.578005 660.31202,287 661.468031,287 L669.271099,287 L669.271099,287 C670.42711,287 671.005115,287.578005 671.005115,288.734015 L671.005115,294.803069 C671.962785,294.803069 672.73913,295.579414 672.73913,296.537084 Z M665.369565,298.271099 C664.651312,298.271099 664.069054,298.853358 664.069054,299.571611 C664.069054,299.873732 664.172074,300.151791 664.344902,300.372576 L664.502557,303.039642 L666.236573,303.039642 L666.376127,300.395179 C666.559839,300.170912 666.670077,299.884135 666.670077,299.571611 C666.670077,298.853358 666.087818,298.271099 665.369565,298.271099 Z M668.404092,294.803069 L668.404092,289.601023 L668.404092,289.601023 L662.335038,289.601023 L662.335038,289.601023 L662.335,294.803 L668.404092,294.803069 Z" id="icon-lock-close"></path>
        </g>
    </g>
</svg>