<?xml version="1.0" encoding="UTF-8"?>
<svg width="15px" height="20px" viewBox="0 0 15 20" version="1.1" xmlns="http://www.w3.org/2000/svg" xmlns:xlink="http://www.w3.org/1999/xlink">
    <title>icon-lock-open</title>
    <g id="Webpage" stroke="none" stroke-width="1" fill="none" fill-rule="evenodd">
        <g id="desktop/login" transform="translate(-608.000000, -287.000000)" fill="#FFFFFF">
            <path d="M618.404092,294.803069 L618.404092,289.601023 L618.404092,289.601023 L612.335038,289.601023 L612.335038,289.601023 L612.335038,292.202046 L609.734015,292.202046 L609.734015,288.734015 C609.734015,287.578005 610.31202,287 611.468031,287 L619.271099,287 L619.271099,287 C620.42711,287 621.005115,287.578005 621.005115,288.734015 L621.005115,294.803069 C621.962785,294.803069 622.73913,295.579414 622.73913,296.537084 L622.73913,305.207161 C622.73913,306.164831 621.962785,306.941176 621.005115,306.941176 L609.734015,306.941176 C608.776345,306.941176 608,306.164831 608,305.207161 L608,296.537084 C608,295.579414 608.776345,294.803069 609.734015,294.803069 L618.404092,294.803069 Z M615.369565,298.271099 C614.651312,298.271099 614.069054,298.853358 614.069054,299.571611 C614.069054,299.873732 614.172074,300.151791 614.344902,300.372576 L614.502557,303.039642 L616.236573,303.039642 L616.376127,300.395179 C616.559839,300.170912 616.670077,299.884135 616.670077,299.571611 C616.670077,298.853358 616.087818,298.271099 615.369565,298.271099 Z" id="icon-lock-open"></path>
        </g>
    </g>
</svg>